<?xml version="1.0" encoding="UTF-8"?>
<svg width="685px" height="595px" viewBox="0 0 685 595" version="1.1" xmlns="http://www.w3.org/2000/svg" xmlns:xlink="http://www.w3.org/1999/xlink">
    <title>Logo</title>
    <g id="Page-1" stroke="none" stroke-width="1" fill="none" fill-rule="evenodd">
        <g id="Logo" transform="translate(0.346902, 0.000000)">
            <path d="M23.5959475,104.337358 C24.0569168,104.367885 24.5442248,104.405076 25.0581535,104.445101 C46.7794234,106.136752 96.5331584,134.283865 137.208027,173.318006 C166.180958,201.122238 190.855051,234.777704 196.794856,269.677818 C203.285176,307.812553 193.693008,340.633039 175.605521,364.749689 C155.300338,391.823266 124.369514,408 94.153098,408 C70.9712762,408 52.6070212,397.296586 39.0493609,382.940688 C20.0091272,362.779418 10,335.340749 10,318.303427 C10,287.227194 13.0861075,275.91554 45.8235024,216.071273 C54.8051867,199.652669 56.3069207,183.52587 53.8526962,168.446435 C50.4985177,147.837432 39.4096188,129.256761 30.786986,115.140395 C28.18844,110.886239 25.220965,107.247644 23.5959475,104.337358 Z" id="Oval" stroke="#7EC012" stroke-width="20"></path>
            <g id="Kabel" transform="translate(89.653098, 0.000000)">
                <path d="M297.5,585 C456.281866,585 585,456.281866 585,297.5 C585,138.718134 456.281866,10 297.5,10 C138.718134,10 10,138.718134 10,297.5" id="Oval" stroke="#7EC012" stroke-width="20" transform="translate(297.500000, 297.500000) rotate(90.000000) translate(-297.500000, -297.500000) "></path>
                <text id="7EC012" font-family="Arial-BoldMT, Arial" font-size="24" font-weight="bold" fill="#000000">
                    <tspan x="283.134766" y="428">7EC012</tspan>
                </text>
                <ellipse id="Oval" stroke="#7EC012" fill="#7EC012" cx="10" cy="297.5" rx="9.5" ry="9"></ellipse>
                <path d="M293,0 L300.0415,0 C303.07909,1.2183607e-15 305.854636,1.72031821 307.206095,4.44070558 C309.872429,9.80783721 312.538763,15.1749688 315.205096,20.5421005 C314.587342,20.5149059 313.969587,20.4877114 313.351832,20.4605169 C308.937829,20.2662055 305.202052,23.6869415 305.00774,28.1009446 C305.002581,28.218151 305,28.3354566 305,28.4527765 L305,153 C305,157.418278 301.418278,161 297,161 L293,161 C288.581722,161 285,157.418278 285,153 L285,8 C285,3.581722 288.581722,8.11624501e-16 293,0 Z" id="Rectangle" fill="#7EC012"></path>
            </g>
            <g id="Stecker" transform="translate(387.162085, 297.151714) scale(1, -1) translate(-387.162085, -297.151714) translate(228.158982, 121.000000)">
                <g id="Group" transform="translate(80.494116, 0.000000)" fill="#9E9FA0">
                    <rect id="Rectangle" x="0" y="0" width="50" height="100" rx="8"></rect>
                    <rect id="Rectangle" x="107" y="0" width="50" height="100" rx="8"></rect>
                </g>
                <g id="Rectangle" transform="translate(-0.000000, 61.759399)" fill="#EDEAE5">
                    <path d="M189.030493,78.6482425 C153.159398,26.2160808 147.417455,0 171.804663,0 C206.497168,0 318.006206,0 318.006206,0 C318.006206,0 318.006206,96.8480093 318.006206,290.544028 L300.239611,290.544028 C248.467089,290.544028 206.497168,248.574107 206.497168,196.801585 L206.497168,135.112836 C206.497168,114.96133 200.408958,95.2799498 189.030493,78.6482425 Z" transform="translate(237.503103, 145.272014) scale(-1, 1) translate(-237.503103, -145.272014) "></path>
                    <path d="M32.0304927,78.6482425 C-3.84060168,26.2160808 -9.58254483,2.27373675e-13 14.8046633,2.27373675e-13 C49.4971682,2.27373675e-13 161.006206,2.27373675e-13 161.006206,2.27373675e-13 C161.006206,2.27373675e-13 161.006206,96.8480093 161.006206,290.544028 L143.239611,290.544028 C91.4670892,290.544028 49.4971682,248.574107 49.4971682,196.801585 L49.4971679,135.112836 C49.4971679,114.96133 43.4089582,95.2799498 32.0304927,78.6482425 Z"></path>
                </g>
            </g>
            <ellipse id="Oval" fill="#7EC012" cx="100.653098" cy="216" rx="11" ry="23"></ellipse>
        </g>
    </g>
</svg>